<svg viewBox="0 0 24 24" fill="none" xmlns="http://www.w3.org/2000/svg">
  <path d="M12 2C8 2 8 4 8 5V8H13V9H5C4 9 2 10 2 13C2 16 4 17 5 17H7V14C7 13 8 12 9 12H15C16 12 17 11 17 10V5C17 4 16 2 12 2Z" stroke="#cd4747" stroke-width="1.5"/>
  <path d="M12 22C16 22 16 20 16 19V16H11V15H19C20 15 22 14 22 11C22 8 20 7 19 7H17V10C17 11 16 12 15 12H9C8 12 7 13 7 14V19C7 20 8 22 12 22Z" stroke="#cd4747" stroke-width="1.5"/>
  <circle cx="10" cy="5" r="1" fill="#cd4747"/>
  <circle cx="14" cy="19" r="1" fill="#cd4747"/>
</svg>